<?xml version="1.0" standalone="no"?>
<!DOCTYPE svg PUBLIC "-//W3C//DTD SVG 20010904//EN"
 "http://www.w3.org/TR/2001/REC-SVG-20010904/DTD/svg10.dtd">
<svg version="1.0" xmlns="http://www.w3.org/2000/svg"
 width="2000.000000pt" height="2000.000000pt" viewBox="0 0 2000.000000 2000.000000"
 preserveAspectRatio="xMidYMid meet">
<metadata>
Created by potrace 1.16, written by Peter Selinger 2001-2019
</metadata>
<g transform="translate(0.000000,2000.000000) scale(0.100000,-0.100000)"
fill="#000000" stroke="none">
<path d="M9550 19290 c-1522 -81 -2892 -482 -4195 -1228 -525 -300 -1051 -681
-1560 -1131 -180 -158 -585 -568 -766 -774 -1329 -1512 -2110 -3323 -2293
-5317 -31 -336 -39 -602 -31 -985 11 -496 16 -579 61 -960 216 -1856 985
-3583 2234 -5020 166 -190 697 -716 905 -896 1117 -966 2393 -1635 3790 -1987
518 -131 955 -204 1550 -258 238 -22 1040 -31 1285 -15 1152 77 2118 302 3120
729 1465 624 2755 1631 3746 2922 539 702 995 1524 1307 2355 305 815 483
1609 563 2515 21 242 30 948 15 1237 -67 1287 -378 2490 -940 3636 -339 690
-763 1331 -1286 1942 -155 182 -214 245 -414 449 -647 657 -1319 1173 -2095
1610 -1206 680 -2529 1072 -3936 1166 -213 15 -859 20 -1060 10z m1025 -565
c289 -20 464 -39 720 -76 1346 -196 2646 -719 3763 -1516 1188 -847 2138
-1956 2776 -3243 512 -1031 793 -2072 888 -3280 15 -187 18 -1104 5 -1184 l-9
-50 -57 110 c-72 138 -128 220 -287 414 -169 207 -201 254 -284 411 -39 74
-88 151 -108 172 -20 21 -82 66 -137 100 -172 106 -219 162 -265 317 -12 41
-38 107 -57 145 -37 72 -397 629 -651 1005 -257 380 -286 414 -477 554 -141
104 -184 146 -306 297 -80 100 -149 174 -212 226 -159 134 -212 192 -249 274
-72 159 -104 214 -147 247 -38 28 -50 32 -107 32 -78 0 -130 -19 -251 -92 -72
-44 -113 -61 -198 -82 -116 -29 -151 -44 -206 -87 l-35 -28 -19 35 c-31 57
-122 134 -255 213 -148 89 -202 139 -218 203 -7 26 -16 107 -21 180 -6 74 -18
157 -27 184 -21 62 -82 155 -173 264 -91 108 -133 190 -165 318 -32 130 -55
181 -154 334 -121 189 -137 222 -181 378 -53 186 -87 240 -181 287 -48 25 -92
37 -170 48 -58 8 -136 20 -173 25 -84 13 -152 46 -202 99 -51 53 -78 103 -142
261 -31 74 -66 156 -79 182 -16 31 -24 65 -24 96 0 34 -7 59 -23 83 -33 50
-64 49 -166 -2 -127 -64 -215 -157 -306 -323 -92 -168 -137 -217 -261 -286
-88 -49 -118 -73 -264 -220 -186 -186 -293 -309 -339 -391 -17 -30 -53 -115
-80 -188 -28 -73 -65 -158 -83 -189 -36 -61 -132 -162 -327 -342 -133 -123
-207 -221 -231 -304 -7 -25 -14 -46 -17 -46 -2 0 -36 24 -76 54 -89 66 -276
174 -399 229 -86 39 -100 42 -178 42 -74 0 -91 -3 -130 -27 -90 -52 -197 -190
-303 -388 -86 -162 -230 -496 -294 -684 -112 -333 -140 -367 -410 -505 -98
-50 -258 -142 -357 -206 l-179 -115 -36 27 c-70 53 -244 229 -324 327 -85 105
-131 140 -230 177 -99 37 -153 98 -204 234 -66 172 -118 220 -255 231 -137 11
-163 27 -293 182 -98 116 -162 166 -224 177 -94 16 -179 -37 -306 -189 -50
-61 -112 -129 -136 -152 -108 -98 -407 -323 -574 -430 -33 -21 -132 -71 -220
-112 -205 -95 -270 -139 -419 -282 -66 -64 -176 -158 -242 -208 -211 -160
-256 -230 -359 -561 -82 -263 -215 -381 -570 -504 -237 -82 -333 -129 -635
-307 -440 -259 -644 -333 -1030 -370 -244 -23 -346 -47 -472 -112 -92 -48
-186 -141 -236 -236 -19 -35 -36 -61 -39 -58 -15 15 50 618 98 910 226 1378
783 2685 1614 3791 414 551 919 1082 1450 1525 522 436 1225 882 1835 1165
809 375 1580 608 2435 734 609 90 1271 117 1870 76z m1665 -2709 c-73 -201
-87 -222 -309 -456 -166 -176 -209 -237 -190 -272 5 -10 17 -18 25 -18 27 0
106 61 229 178 l119 113 14 -82 14 -82 -100 -96 c-69 -66 -108 -113 -127 -151
-15 -30 -34 -62 -42 -72 -9 -10 -10 -18 -4 -22 16 -11 64 14 106 54 35 33 204
150 218 150 15 0 41 -113 42 -177 0 -102 -6 -109 -195 -225 -94 -58 -119 -132
-86 -258 8 -30 14 -56 13 -56 -1 -1 -36 -25 -77 -52 -94 -63 -217 -195 -294
-314 -20 -32 -15 -78 9 -78 24 0 115 59 195 125 93 77 199 155 211 155 13 0
11 -91 -2 -131 -7 -19 -27 -55 -45 -80 -43 -62 -58 -92 -93 -189 -56 -154
-111 -221 -214 -268 -73 -34 -112 -75 -121 -130 -11 -70 -90 -112 -211 -112
-63 0 -129 -57 -232 -201 -45 -63 -109 -139 -143 -171 -69 -64 -372 -275 -470
-328 -218 -117 -379 -270 -501 -478 -28 -48 -72 -112 -98 -141 -64 -77 -171
-233 -165 -243 12 -19 35 -3 114 78 46 47 115 109 154 139 93 69 451 433 504
511 40 61 43 63 154 109 163 68 281 131 367 195 89 66 116 96 172 192 48 81
101 143 140 164 15 7 67 23 114 34 115 27 157 50 203 113 49 65 66 80 119 100
l42 17 -5 -28 c-4 -24 -26 -176 -41 -284 -5 -35 -8 -38 -38 -38 -28 0 -41 -9
-86 -62 -30 -35 -129 -139 -220 -233 -348 -356 -348 -357 -294 -410 46 -47 73
-36 177 72 51 54 179 186 284 293 126 129 195 208 204 231 l13 36 33 -37 c19
-21 79 -75 134 -121 55 -46 100 -87 100 -90 0 -4 -44 -54 -98 -111 -136 -143
-162 -176 -162 -198 0 -53 57 -13 231 158 l107 104 47 -43 c86 -80 91 -111 35
-240 -30 -67 -32 -80 -27 -145 3 -48 16 -96 36 -145 35 -84 36 -89 17 -89 -21
0 -50 -46 -71 -110 -10 -30 -29 -77 -43 -105 -30 -60 -155 -192 -232 -245 -30
-21 -63 -47 -73 -57 -22 -25 -87 -132 -87 -144 0 -21 29 -6 70 37 25 26 97 88
160 139 64 51 166 148 230 218 63 69 118 126 121 126 4 1 12 -13 19 -29 15
-37 63 -98 93 -119 12 -9 44 -18 70 -21 l49 -5 -44 -33 c-105 -78 -298 -350
-411 -578 -45 -91 -96 -177 -139 -232 -37 -48 -83 -109 -102 -137 -37 -52 -82
-163 -71 -174 9 -8 171 161 287 300 52 63 181 229 286 369 105 140 218 287
249 327 32 39 65 81 73 93 l16 22 44 -34 c91 -69 128 -169 137 -371 l6 -128
-57 -83 c-83 -123 -226 -286 -365 -416 -67 -63 -135 -135 -149 -160 -25 -41
-27 -52 -24 -139 1 -52 4 -97 6 -99 3 -2 21 2 41 10 31 11 42 22 61 67 35 78
97 160 224 296 62 66 139 157 173 203 33 45 62 81 64 78 9 -9 -61 -322 -75
-333 -8 -7 -34 -56 -57 -110 -24 -54 -63 -143 -89 -198 -39 -85 -46 -109 -46
-163 0 -60 -2 -64 -42 -105 -56 -56 -114 -139 -217 -312 -91 -152 -106 -187
-90 -216 17 -32 38 -21 76 39 20 31 50 75 67 96 17 22 44 68 61 102 36 75 139
209 143 188 5 -23 -58 -345 -76 -387 -8 -21 -35 -56 -59 -77 -41 -36 -212
-127 -318 -168 -28 -11 -129 -57 -225 -103 -119 -56 -249 -108 -405 -160 -126
-42 -231 -82 -233 -89 -4 -10 18 -12 109 -7 216 11 384 61 730 218 123 55 272
118 331 139 138 50 178 71 215 113 27 31 30 40 26 81 -7 58 32 142 85 185 76
64 285 142 587 221 161 41 286 103 369 181 83 77 108 118 112 180 3 56 11 69
68 108 74 50 88 52 471 71 191 9 496 39 608 60 60 12 98 36 111 72 7 19 0 44
-29 114 -57 136 -70 191 -56 241 16 58 50 95 138 148 41 25 111 77 154 115 43
39 104 84 135 101 55 31 94 77 94 111 0 9 -42 102 -94 206 -58 115 -109 235
-130 304 -21 66 -55 146 -82 193 -82 140 -124 225 -124 249 0 39 61 158 107
209 64 73 70 107 44 253 -27 153 -26 159 8 334 16 79 26 151 23 159 -3 8 0 12
8 9 8 -2 30 -52 50 -109 20 -58 46 -121 57 -140 25 -39 87 -100 153 -149 135
-101 259 -225 367 -365 77 -101 145 -166 253 -241 122 -85 297 -265 407 -420
51 -71 110 -154 132 -184 22 -30 72 -91 111 -135 103 -115 141 -171 295 -440
163 -283 174 -307 220 -467 45 -156 74 -216 139 -281 55 -56 126 -96 219 -123
73 -21 143 -93 171 -175 18 -54 18 -55 -3 -94 -27 -52 -28 -128 -1 -172 29
-48 71 -65 145 -61 56 2 67 0 91 -22 74 -69 231 -254 347 -410 72 -96 159
-210 193 -252 l63 -76 -15 -127 c-186 -1590 -795 -3079 -1776 -4336 -1331
-1706 -3197 -2846 -5303 -3238 -304 -57 -743 -110 -1080 -131 -209 -13 -857
-13 -1060 0 -1115 72 -2131 327 -3133 786 -743 341 -1451 801 -2087 1359 -198
173 -555 524 -724 710 -1227 1353 -1980 2997 -2201 4805 -38 312 -52 534 -57
912 l-6 377 34 83 c44 110 138 249 202 299 114 91 224 125 452 143 l69 6 -201
-198 c-140 -136 -215 -219 -246 -267 -45 -70 -81 -145 -73 -152 4 -4 209 136
298 204 31 23 59 43 61 43 3 0 10 -20 16 -44 14 -56 64 -101 122 -111 l42 -7
-242 -237 c-222 -218 -260 -261 -230 -261 5 0 87 58 182 128 95 70 233 173
307 228 287 212 456 369 660 614 140 168 288 314 353 346 29 15 109 60 180
101 149 87 203 108 423 169 90 24 196 58 236 74 40 17 74 30 76 30 2 0 -22
-32 -53 -72 -31 -40 -52 -74 -46 -76 28 -9 141 69 250 173 64 61 143 131 177
157 65 50 118 105 129 135 7 19 179 179 361 336 106 91 185 172 205 210 5 9 8
17 5 17 -18 0 -222 -106 -262 -136 -28 -22 -88 -67 -133 -101 -46 -35 -87 -63
-91 -63 -9 0 23 99 55 175 53 123 209 298 465 522 161 140 223 183 358 249
135 65 255 142 455 292 256 191 374 289 432 362 32 39 59 69 61 68 1 -2 -4
-28 -12 -58 -8 -30 -14 -87 -13 -127 2 -63 -1 -75 -23 -101 -14 -17 -46 -36
-77 -47 -93 -31 -312 -211 -398 -328 -19 -26 -56 -59 -81 -74 -102 -58 -152
-112 -152 -163 0 -33 29 -24 122 38 48 31 107 69 130 85 24 15 58 40 77 55 29
23 33 24 23 6 -6 -11 -19 -62 -28 -113 l-17 -92 -57 -39 c-31 -21 -90 -75
-131 -120 -41 -45 -134 -144 -207 -221 -118 -125 -202 -229 -202 -251 0 -22
44 -3 92 40 153 138 428 333 428 304 0 -22 -63 -148 -105 -212 -54 -80 -186
-210 -270 -267 -33 -22 -97 -59 -142 -82 -45 -22 -87 -50 -93 -61 -6 -11 -19
-69 -30 -128 -11 -60 -29 -139 -40 -175 -20 -65 -23 -68 -93 -116 -84 -56
-331 -290 -563 -532 -166 -172 -196 -211 -177 -230 8 -8 25 1 60 33 84 77 133
113 328 238 105 67 213 142 242 166 28 24 53 44 56 44 3 0 -1 -20 -8 -45 -8
-24 -19 -78 -24 -120 -10 -68 -16 -82 -62 -143 -28 -37 -71 -80 -97 -96 -124
-77 -254 -189 -599 -518 -287 -272 -382 -376 -457 -498 -40 -65 -57 -110 -41
-110 9 0 533 438 660 551 44 39 112 97 150 127 39 31 105 87 149 125 43 37 80
66 83 63 10 -9 -28 -110 -56 -151 -74 -108 -248 -346 -287 -392 -25 -28 -86
-85 -137 -126 -108 -87 -187 -169 -187 -193 0 -15 5 -13 28 8 46 45 137 94
245 133 189 68 368 174 472 279 115 116 152 194 185 388 26 156 32 175 91 278
37 66 51 103 62 165 11 60 29 109 72 195 102 202 180 423 209 590 6 30 17 42
74 79 100 67 394 366 469 478 91 135 153 317 184 537 6 44 14 101 18 126 7 49
-8 39 166 122 62 29 73 39 95 83 18 36 26 71 29 125 2 53 9 83 22 102 27 38
45 93 58 179 6 41 16 89 22 107 l11 33 63 -69 c40 -43 87 -81 127 -103 57 -31
71 -34 146 -34 l82 -1 36 -59 c20 -32 55 -98 79 -145 55 -109 110 -162 186
-180 107 -25 149 -59 267 -216 37 -48 108 -125 159 -171 l92 -83 -87 -44 c-48
-24 -152 -69 -232 -101 -264 -105 -355 -162 -453 -285 -115 -144 -192 -304
-306 -632 -151 -432 -278 -711 -444 -969 -48 -75 -87 -140 -87 -145 0 -15 33
-44 51 -44 23 0 101 97 206 255 107 161 169 271 370 655 258 493 339 628 423
703 72 65 115 89 274 152 74 30 173 72 220 94 l86 39 -39 -51 c-20 -29 -88
-128 -149 -220 -61 -93 -170 -246 -242 -342 -71 -95 -130 -176 -130 -180 0
-23 294 267 417 410 37 44 115 129 173 190 58 60 117 124 131 140 27 33 108
104 203 178 63 49 128 120 166 183 19 31 158 143 245 199 51 32 148 86 150 83
1 -2 -115 -131 -258 -288 -143 -157 -305 -339 -360 -405 -117 -139 -267 -339
-267 -354 0 -30 45 2 183 132 356 334 521 503 833 857 138 157 172 203 180
249 4 20 10 41 14 46 30 38 99 199 149 346 77 229 82 240 199 479 128 260 178
345 237 399 47 43 48 44 109 38 33 -2 73 -10 88 -17 36 -17 29 -29 -83 -147
-113 -119 -167 -197 -149 -218 19 -23 35 -18 68 19 39 45 202 191 266 239 l49
37 51 -30 c28 -17 58 -35 66 -40 12 -7 6 -17 -32 -52 -97 -89 -350 -362 -390
-421 -23 -34 -50 -83 -60 -109 -45 -119 -15 -105 175 81 89 87 182 176 207
197 25 21 88 80 141 132 l96 93 46 -22 c40 -19 45 -26 42 -48 -3 -14 -10 -59
-16 -99 -16 -107 -70 -205 -179 -331 -107 -123 -121 -143 -235 -332 -90 -148
-129 -203 -199 -276 -39 -42 -43 -68 -6 -45 11 7 23 12 26 12 13 0 -30 -42
-218 -212 -224 -203 -435 -444 -425 -487 2 -9 -16 -44 -40 -77 -48 -68 -77
-130 -68 -144 4 -6 17 -10 31 -10 19 0 24 5 24 25 0 14 4 25 9 25 5 0 31 20
59 45 36 32 58 45 80 45 26 0 44 14 114 92 106 119 135 147 421 421 131 125
302 281 380 346 218 181 307 285 313 362 1 22 17 56 41 91 46 65 79 135 69
145 -4 4 -17 1 -29 -7 -12 -8 -58 -35 -102 -61 -164 -97 -189 -116 -284 -214
-54 -55 -132 -136 -175 -180 l-78 -80 73 110 c54 82 114 153 238 280 209 214
231 252 281 478 15 68 30 107 47 128 18 21 24 37 20 57 -7 34 16 74 57 97 39
24 270 228 404 359 173 169 199 209 297 456 61 153 88 201 180 321 148 192
255 301 420 426 90 68 192 172 309 316 44 53 81 95 83 93 2 -2 -24 -78 -57
-170z m202 -155 c36 -76 106 -149 191 -200 74 -44 114 -57 249 -81 219 -39
234 -48 303 -185 28 -55 91 -167 141 -250 146 -239 167 -289 219 -494 44 -174
85 -254 186 -367 161 -181 189 -249 169 -407 -26 -199 22 -283 223 -387 56
-29 128 -70 160 -92 64 -43 207 -165 207 -176 0 -19 -135 -95 -312 -176 -220
-101 -272 -183 -358 -560 -74 -320 -135 -435 -265 -499 -80 -39 -139 -55 -324
-86 -199 -34 -218 -44 -228 -121 l-6 -43 -29 57 c-33 66 -88 124 -170 180 -53
36 -64 39 -147 45 -81 6 -93 9 -120 35 -63 60 -161 288 -161 370 1 23 14 75
31 116 78 195 33 297 -210 479 -198 147 -226 188 -201 292 13 54 10 131 -11
290 l-13 96 84 164 c45 90 107 197 137 238 94 130 102 210 44 415 -46 162 -45
169 53 291 79 98 101 170 100 330 0 88 -8 160 -29 270 -39 206 -38 301 7 558
l23 127 12 -81 c8 -49 26 -108 45 -148z m2734 -2628 c-14 -70 -32 -184 -41
-252 -9 -68 -23 -138 -32 -155 -8 -17 -42 -59 -74 -93 -65 -67 -109 -149 -109
-202 0 -34 -83 -163 -233 -365 -62 -84 -265 -481 -252 -494 3 -4 14 3 23 15 9
11 51 63 93 114 41 52 106 133 143 182 96 125 277 320 287 310 5 -5 27 -50 49
-101 35 -82 39 -97 31 -133 -10 -43 -41 -96 -101 -169 -39 -48 -150 -226 -150
-241 0 -5 6 -9 14 -9 16 0 239 216 277 269 l25 34 43 -107 42 -107 -51 -57
c-28 -31 -69 -93 -91 -137 -22 -44 -61 -106 -86 -138 -47 -61 -50 -87 -9 -87
18 0 60 37 169 150 156 162 151 160 182 86 32 -77 0 -113 -195 -213 -224 -115
-300 -193 -300 -308 0 -25 15 -93 34 -150 34 -105 34 -105 12 -110 -24 -6
-405 -45 -437 -45 -13 0 -19 5 -16 13 3 6 19 44 36 84 16 40 57 121 90 180 56
100 95 207 84 226 -7 12 -34 -15 -118 -113 -145 -171 -210 -274 -223 -354 l-8
-41 -109 -7 c-211 -12 -363 -61 -424 -134 -16 -20 -44 -75 -62 -123 -67 -177
-102 -222 -221 -282 -64 -32 -189 -82 -193 -77 -1 2 49 49 111 106 117 105
220 221 291 327 22 33 92 139 156 235 63 96 143 206 177 245 66 72 66 97 2 51
-63 -45 -269 -274 -387 -431 -131 -174 -254 -297 -466 -467 -26 -21 -59 -57
-74 -81 -25 -39 -35 -45 -116 -73 -49 -17 -89 -30 -89 -30 0 1 46 93 103 206
60 120 145 270 206 363 57 87 101 160 98 163 -12 13 -106 -90 -216 -236 -123
-165 -289 -346 -303 -332 -18 18 -10 204 11 282 12 41 28 106 36 144 9 38 31
104 49 145 66 147 164 448 201 612 19 90 47 201 62 247 l26 83 66 -6 c132 -13
388 33 499 89 66 34 144 122 187 211 31 66 93 266 170 545 34 126 76 211 126
254 23 19 86 54 140 77 55 23 127 59 160 80 73 47 82 49 42 7 -46 -50 -135
-166 -198 -257 -49 -73 -141 -241 -132 -241 2 0 60 66 127 148 225 268 322
373 419 450 167 134 251 230 251 289 0 14 20 25 83 47 45 16 87 33 92 38 19
17 16 -18 -9 -149z m-12368 -2323 c-15 -24 -187 -173 -363 -315 -66 -53 -159
-132 -206 -175 l-87 -79 -4 54 c-5 62 -31 98 -85 121 -18 8 -33 16 -33 17 0 2
39 37 87 78 48 41 112 97 143 125 53 50 60 53 205 92 83 23 195 55 250 71 55
16 101 30 103 30 1 1 -3 -8 -10 -19z"/>
<path d="M9729 18120 c-73 -39 -99 -146 -51 -209 48 -64 121 -81 197 -45 99
47 111 183 22 246 -43 30 -121 34 -168 8z"/>
<path d="M10484 18110 c-11 -4 -35 -25 -53 -46 -31 -35 -33 -41 -29 -95 3 -45
10 -65 29 -85 35 -38 72 -54 124 -54 80 0 136 45 150 122 9 50 -23 121 -67
148 -35 21 -114 26 -154 10z"/>
<path d="M9007 18076 c-67 -24 -97 -66 -97 -136 0 -76 47 -133 120 -145 104
-18 205 73 186 167 -20 102 -108 150 -209 114z"/>
<path d="M11223 18024 c-58 -29 -90 -101 -73 -163 15 -57 59 -97 121 -110 91
-20 164 30 176 117 12 92 -46 163 -140 169 -35 2 -63 -2 -84 -13z"/>
<path d="M8245 17941 c-52 -31 -68 -58 -72 -114 -5 -61 17 -105 69 -138 65
-40 177 -8 213 61 34 66 7 163 -55 195 -40 21 -118 19 -155 -4z"/>
<path d="M11960 17863 c-104 -54 -107 -209 -6 -257 43 -20 118 -21 156 -1 70
36 98 142 53 203 -46 61 -141 87 -203 55z"/>
<path d="M7563 17770 c-140 -33 -164 -186 -43 -268 41 -28 96 -26 156 5 101
52 95 206 -9 254 -45 20 -55 21 -104 9z"/>
<path d="M12685 17646 c-17 -7 -43 -28 -58 -45 -36 -43 -38 -122 -4 -172 27
-40 105 -73 152 -65 69 13 135 80 135 136 -1 44 -36 106 -75 130 -45 28 -110
35 -150 16z"/>
<path d="M6852 17513 c-12 -3 -40 -21 -61 -41 -115 -109 -16 -284 137 -243 83
23 133 96 118 174 -16 86 -93 129 -194 110z"/>
<path d="M13349 17346 c-93 -63 -81 -202 21 -253 55 -28 105 -29 148 -3 97 59
96 198 -3 255 -56 33 -118 33 -166 1z"/>
<path d="M6160 17179 c-70 -28 -110 -106 -90 -178 42 -159 294 -118 294 47 0
105 -103 171 -204 131z"/>
<path d="M14040 17012 c-57 -25 -92 -76 -92 -134 -2 -117 126 -198 229 -144
38 19 73 81 73 126 0 101 -124 190 -210 152z"/>
<path d="M5557 16810 c-42 -8 -81 -33 -109 -71 -67 -89 9 -229 125 -229 71 0
157 87 157 159 0 87 -85 156 -173 141z"/>
<path d="M14651 16582 c-100 -50 -105 -178 -12 -249 30 -23 46 -28 93 -28 46
0 61 4 83 25 39 36 55 73 55 123 0 109 -120 180 -219 129z"/>
<path d="M4909 16347 c-24 -13 -54 -38 -66 -57 -43 -62 -22 -160 42 -200 99
-61 235 14 235 130 0 58 -28 103 -79 130 -52 26 -78 25 -132 -3z"/>
<path d="M15235 16111 c-49 -30 -68 -58 -73 -109 -14 -151 167 -230 268 -116
25 29 30 43 30 87 0 62 -22 101 -77 134 -46 28 -107 30 -148 4z"/>
<path d="M4370 15863 c-65 -25 -115 -102 -107 -165 18 -137 188 -174 275 -60
32 43 37 123 9 166 -35 53 -118 81 -177 59z"/>
<path d="M15773 15591 c-80 -37 -106 -125 -60 -204 15 -24 37 -51 49 -59 114
-75 268 34 227 160 -15 48 -44 80 -94 103 -50 23 -70 23 -122 0z"/>
<path d="M3834 15301 c-96 -58 -110 -176 -30 -250 35 -33 117 -40 166 -14 44
23 80 85 80 139 0 105 -127 179 -216 125z"/>
<path d="M16243 15010 c-114 -69 -64 -258 74 -277 115 -15 197 116 137 218
-44 75 -141 102 -211 59z"/>
<path d="M3410 14723 c-57 -18 -106 -77 -111 -133 -5 -61 2 -83 40 -121 35
-36 43 -39 93 -39 126 0 203 129 139 233 -30 49 -107 78 -161 60z"/>
<path d="M16680 14404 c-88 -55 -90 -185 -4 -253 57 -45 151 -36 198 19 53 64
43 153 -24 214 -35 32 -46 36 -93 36 -29 0 -63 -7 -77 -16z"/>
<path d="M2981 14078 c-140 -75 -96 -283 59 -283 82 0 141 59 147 147 9 119
-101 192 -206 136z"/>
<path d="M17065 13762 c-47 -22 -85 -82 -85 -133 0 -45 37 -108 79 -136 102
-69 244 35 212 155 -21 79 -56 113 -131 126 -24 4 -48 0 -75 -12z"/>
<path d="M2640 13412 c-46 -25 -82 -89 -82 -147 0 -114 113 -179 212 -124 76
43 104 151 58 219 -45 65 -122 86 -188 52z"/>
<path d="M17364 13071 c-53 -32 -74 -68 -74 -126 0 -91 64 -159 149 -159 114
0 174 109 120 220 -35 73 -130 105 -195 65z"/>
<path d="M2380 12719 c-85 -34 -126 -151 -80 -227 26 -42 99 -76 144 -68 81
15 130 76 130 161 0 61 -22 99 -75 126 -42 21 -80 23 -119 8z"/>
<path d="M17627 12376 c-49 -18 -61 -28 -82 -75 -32 -71 0 -173 65 -206 77
-40 167 -8 201 71 35 79 2 170 -74 204 -50 23 -60 23 -110 6z"/>
<path d="M2165 12000 c-35 -14 -74 -64 -82 -105 -15 -66 -1 -115 42 -152 33
-28 46 -33 89 -33 87 0 135 44 150 135 17 105 -100 196 -199 155z"/>
<path d="M17817 11652 c-39 -5 -103 -71 -109 -112 -17 -118 75 -217 177 -189
101 28 141 131 89 231 -25 48 -91 78 -157 70z"/>
<path d="M2030 11263 c-23 -9 -60 -45 -76 -75 -20 -39 -18 -117 6 -155 56 -92
202 -82 253 17 23 44 19 126 -9 162 -34 47 -118 71 -174 51z"/>
<path d="M17883 10890 c-18 -10 -38 -29 -46 -42 -39 -61 -28 -155 25 -205 26
-25 37 -28 93 -28 61 0 67 2 102 37 32 33 37 44 41 96 5 70 -13 113 -61 142
-42 26 -112 26 -154 0z"/>
<path d="M8265 9793 c-560 -47 -1034 -257 -1356 -601 -220 -235 -376 -511
-479 -847 -140 -455 -164 -1133 -59 -1657 93 -463 302 -860 607 -1149 135
-128 260 -215 436 -304 327 -165 647 -235 1071 -235 411 0 734 63 999 196 49
25 90 43 91 42 1 -2 10 -59 19 -128 78 -579 269 -1014 585 -1331 262 -262 552
-402 961 -466 160 -25 507 -24 635 0 346 68 593 225 764 487 31 47 67 109 80
138 24 51 38 60 75 46 14 -5 16 -43 16 -315 l0 -309 440 0 440 0 0 1290 0
1290 -1010 0 -1010 0 0 -375 c0 -293 3 -375 13 -376 6 -1 255 -3 552 -3 l540
-2 -2 -175 c-1 -193 -17 -304 -60 -422 -96 -268 -295 -424 -615 -483 -134 -25
-461 -26 -578 -1 -478 101 -748 404 -854 957 -42 219 -51 328 -51 635 1 303
13 439 56 641 90 419 285 694 601 844 220 105 495 141 798 105 382 -44 630
-204 804 -517 59 -106 51 -109 445 129 179 108 330 200 335 204 12 10 -72 182
-140 286 -79 122 -250 292 -381 377 -247 162 -554 267 -908 312 -161 20 -515
23 -675 5 -721 -79 -1248 -405 -1569 -970 -64 -114 -139 -279 -168 -373 l-18
-58 -45 0 -45 0 -22 -79 c-138 -496 -473 -771 -973 -800 -298 -16 -537 29
-733 140 -338 191 -516 494 -594 1014 -26 173 -26 717 0 890 81 539 276 858
634 1039 329 165 856 163 1171 -5 182 -97 303 -228 416 -449 56 -108 57 -110
91 -110 28 0 106 43 374 207 l339 207 -19 48 c-29 75 -98 207 -144 278 -242
375 -631 609 -1161 699 -66 12 -168 25 -229 31 -101 9 -395 11 -490 3z"/>
<path d="M1939 9757 c-88 -59 -91 -198 -6 -261 36 -26 112 -26 157 0 39 23 70
81 70 131 0 83 -66 153 -145 153 -27 0 -54 -8 -76 -23z"/>
<path d="M17915 9393 c-37 -9 -83 -53 -95 -89 -16 -48 -8 -124 16 -157 54 -75
165 -76 233 -3 34 36 40 126 13 176 -30 54 -108 88 -167 73z"/>
<path d="M2040 9027 c-157 -40 -135 -270 29 -301 55 -10 113 22 141 78 59 123
-42 256 -170 223z"/>
<path d="M17790 8638 c-55 -28 -81 -71 -82 -136 -2 -86 50 -143 136 -149 91
-7 149 52 150 154 1 37 -5 59 -20 79 -52 71 -114 88 -184 52z"/>
<path d="M2165 8286 c-66 -29 -101 -100 -85 -171 24 -104 122 -153 209 -104
160 89 43 349 -124 275z"/>
<path d="M17625 7916 c-66 -28 -110 -122 -90 -188 38 -122 198 -145 264 -37
32 52 35 106 9 157 -37 72 -111 99 -183 68z"/>
<path d="M2360 7562 c-108 -54 -104 -219 7 -273 79 -38 156 -13 196 64 49 94
-32 227 -138 227 -16 0 -46 -8 -65 -18z"/>
<path d="M17385 7206 c-109 -48 -126 -209 -30 -272 96 -63 228 19 228 141 0
105 -103 173 -198 131z"/>
<path d="M2645 6866 c-97 -44 -117 -157 -44 -241 67 -75 189 -62 234 25 62
120 -71 271 -190 216z"/>
<path d="M17075 6521 c-34 -14 -74 -62 -86 -101 -16 -53 -4 -105 35 -147 28
-31 40 -37 87 -40 42 -3 61 0 87 16 37 24 69 72 78 117 8 45 -26 118 -68 144
-34 20 -96 26 -133 11z"/>
<path d="M2959 6187 c-21 -14 -41 -41 -53 -69 -17 -41 -18 -52 -7 -88 7 -23
27 -58 45 -77 27 -30 41 -36 83 -40 128 -13 202 101 143 218 -40 77 -140 104
-211 56z"/>
<path d="M16710 5869 c-116 -47 -136 -219 -31 -274 44 -22 112 -19 151 8 47
31 83 102 75 147 -18 99 -108 153 -195 119z"/>
<path d="M3375 5560 c-90 -44 -105 -153 -34 -235 57 -64 140 -70 204 -14 67
59 67 155 0 220 -53 52 -105 61 -170 29z"/>
<path d="M16275 5254 c-64 -33 -98 -83 -97 -145 1 -85 60 -139 151 -139 48 0
57 3 91 38 89 89 65 220 -46 251 -51 14 -63 14 -99 -5z"/>
<path d="M3830 4968 c-110 -57 -105 -209 10 -268 50 -25 96 -25 138 0 107 65
91 226 -27 274 -54 21 -68 20 -121 -6z"/>
<path d="M15770 4678 c-95 -65 -106 -172 -26 -247 29 -27 101 -42 137 -29 58
22 109 94 109 153 0 116 -126 186 -220 123z"/>
<path d="M4332 4420 c-52 -32 -74 -76 -69 -139 4 -49 8 -58 50 -98 42 -39 50
-43 97 -43 94 0 150 53 150 141 0 117 -132 197 -228 139z"/>
<path d="M15259 4162 c-102 -44 -133 -164 -63 -241 48 -54 103 -63 171 -30 87
43 118 133 73 207 -36 59 -122 89 -181 64z"/>
<path d="M4905 3925 c-132 -71 -116 -230 28 -284 71 -27 168 35 181 116 19
112 -114 219 -209 168z"/>
<path d="M14650 3678 c-48 -33 -72 -70 -77 -119 -9 -89 66 -164 156 -156 140
14 194 206 78 277 -45 28 -115 26 -157 -2z"/>
<path d="M5501 3483 c-48 -25 -73 -63 -78 -120 -5 -57 15 -95 72 -139 96 -73
229 -2 227 122 0 23 -8 56 -17 71 -41 69 -139 101 -204 66z"/>
<path d="M14044 3275 c-43 -19 -90 -76 -98 -119 -9 -45 21 -117 58 -141 35
-23 108 -31 146 -15 118 49 128 215 16 269 -48 24 -78 25 -122 6z"/>
<path d="M6155 3095 c-46 -16 -71 -45 -85 -97 -21 -74 14 -140 92 -173 98 -40
179 5 203 113 5 24 1 44 -15 77 -36 74 -118 108 -195 80z"/>
<path d="M13370 2911 c-99 -52 -108 -196 -16 -256 40 -26 120 -22 167 9 51 34
71 66 71 118 2 116 -117 185 -222 129z"/>
<path d="M6810 2758 c-127 -85 -65 -270 91 -272 81 -1 142 60 143 143 1 82
-57 141 -146 149 -44 3 -59 0 -88 -20z"/>
<path d="M12690 2629 c-64 -26 -108 -100 -95 -162 31 -141 227 -163 290 -31
57 121 -67 244 -195 193z"/>
<path d="M7512 2500 c-44 -27 -75 -97 -66 -146 18 -99 146 -156 232 -104 88
54 96 166 18 240 -38 34 -136 40 -184 10z"/>
<path d="M11987 2406 c-126 -46 -146 -197 -35 -267 59 -37 164 -10 211 53 28
38 28 118 1 155 -47 63 -110 84 -177 59z"/>
<path d="M8284 2330 c-134 -29 -156 -207 -34 -271 74 -40 171 -15 206 53 34
65 12 161 -45 195 -31 19 -92 30 -127 23z"/>
<path d="M11244 2249 c-41 -12 -91 -69 -99 -113 -9 -44 23 -118 60 -142 37
-24 124 -30 161 -11 55 29 77 62 82 125 4 52 1 61 -23 90 -49 58 -104 74 -181
51z"/>
<path d="M8985 2194 c-101 -51 -100 -211 0 -259 81 -38 171 -10 213 66 20 35
24 52 18 82 -18 97 -140 156 -231 111z"/>
<path d="M10507 2166 c-51 -19 -67 -34 -89 -83 -24 -54 -16 -103 24 -149 40
-45 85 -59 147 -44 102 24 148 115 105 206 -30 62 -117 95 -187 70z"/>
<path d="M9720 2128 c-91 -62 -89 -173 3 -242 37 -27 120 -28 166 -1 96 57 90
196 -10 247 -49 25 -118 23 -159 -4z"/>
</g>
</svg>
